<?xml version="1.0" encoding="UTF-8"?>
<svg xmlns="http://www.w3.org/2000/svg" xmlns:xlink="http://www.w3.org/1999/xlink" width="100px" height="px" viewBox="0 0 100 89" version="1.1">
<defs>
<clipPath id="clip1">
  <path d="M 0 14 L 99.984375 14 L 99.984375 82 L 0 82 Z M 0 14 "/>
</clipPath>
</defs>
<g id="surface1">
<g clip-path="url(#clip1)" clip-rule="nonzero">
<path style=" stroke:none;fill-rule:evenodd;fill:rgb(100%,100%,100%);fill-opacity:1;" d="M 99.316406 54.03125 L 86.769531 75.566406 C 85.800781 77.230469 84.410156 78.617188 82.734375 79.585938 C 81.050781 80.554688 79.136719 81.074219 77.191406 81.074219 L 7.886719 81.074219 C 4.675781 81.074219 2.679688 77.585938 4.296875 74.8125 L 16.84375 53.277344 C 17.816406 51.609375 19.210938 50.21875 20.878906 49.257812 C 22.5625 48.28125 24.476562 47.769531 26.425781 47.769531 L 95.726562 47.769531 C 98.9375 47.769531 100.933594 51.257812 99.316406 54.03125 Z M 26.425781 42.214844 L 83.257812 42.214844 L 83.257812 33.894531 C 83.257812 29.292969 79.53125 25.570312 74.941406 25.570312 L 47.214844 25.570312 L 36.128906 14.464844 L 8.402344 14.464844 C 3.8125 14.464844 0.0859375 18.195312 0.0859375 22.789062 L 0.0859375 71.015625 L 12.058594 50.476562 C 15.023438 45.382812 20.53125 42.214844 26.425781 42.214844 Z M 26.425781 42.214844 "/>
</g>
</g>
</svg>
