<?xml version="1.0" encoding="UTF-8"?>
<svg xmlns="http://www.w3.org/2000/svg" xmlns:xlink="http://www.w3.org/1999/xlink" width="100px" height="px" viewBox="0 0 100 89" version="1.1">
<defs>
<clipPath id="clip1">
  <path d="M 0 5 L 99.992188 5 L 99.992188 84 L 0 84 Z M 0 5 "/>
</clipPath>
</defs>
<g id="surface1">
<g clip-path="url(#clip1)" clip-rule="nonzero">
<path style=" stroke:none;fill-rule:evenodd;fill:rgb(100%,100%,100%);fill-opacity:1;" d="M 16.667969 52.164062 L 16.667969 80.652344 C 16.667969 81.136719 16.792969 81.617188 17.039062 82.042969 C 17.285156 82.464844 17.632812 82.820312 18.050781 83.0625 C 18.476562 83.304688 18.957031 83.429688 19.441406 83.429688 L 38.898438 83.386719 C 39.375 83.378906 39.855469 83.253906 40.269531 83.011719 C 40.695312 82.765625 41.042969 82.414062 41.285156 81.992188 C 41.527344 81.570312 41.660156 81.09375 41.660156 80.597656 L 41.660156 63.964844 C 41.660156 63.476562 41.792969 63 42.035156 62.578125 C 42.277344 62.152344 42.625 61.804688 43.050781 61.558594 C 43.472656 61.308594 43.949219 61.183594 44.4375 61.183594 L 55.550781 61.183594 C 56.035156 61.183594 56.515625 61.308594 56.9375 61.558594 C 57.363281 61.804688 57.710938 62.152344 57.953125 62.578125 C 58.195312 63 58.328125 63.476562 58.328125 63.964844 L 58.328125 80.59375 C 58.328125 80.59375 58.328125 80.59375 58.328125 80.597656 C 58.328125 81.085938 58.453125 81.566406 58.699219 81.992188 C 58.945312 82.414062 59.292969 82.761719 59.71875 83.003906 C 60.136719 83.253906 60.617188 83.378906 61.101562 83.378906 L 80.550781 83.429688 C 81.035156 83.429688 81.515625 83.304688 81.941406 83.0625 C 82.363281 82.820312 82.710938 82.464844 82.953125 82.042969 C 83.203125 81.617188 83.328125 81.136719 83.328125 80.652344 L 83.328125 52.144531 L 51.324219 25.773438 C 51.238281 25.703125 51.15625 25.640625 51.054688 25.582031 C 50.734375 25.398438 50.375 25.300781 50 25.300781 C 49.625 25.300781 49.265625 25.398438 48.945312 25.582031 C 48.84375 25.640625 48.761719 25.703125 48.675781 25.773438 Z M 84.71875 31.734375 L 84.71875 7.652344 C 84.71875 7.292969 84.621094 6.929688 84.4375 6.617188 C 84.253906 6.292969 83.988281 6.03125 83.675781 5.847656 C 83.359375 5.667969 83 5.570312 82.632812 5.570312 L 72.914062 5.570312 C 72.546875 5.570312 72.183594 5.667969 71.871094 5.847656 C 71.554688 6.03125 71.292969 6.292969 71.109375 6.617188 C 70.925781 6.929688 70.828125 7.292969 70.828125 7.652344 L 70.828125 20.273438 L 55.289062 7.476562 C 54.933594 7.179688 54.554688 6.917969 54.160156 6.6875 C 52.894531 5.957031 51.457031 5.570312 49.992188 5.570312 C 48.53125 5.570312 47.09375 5.957031 45.828125 6.6875 C 45.425781 6.917969 45.050781 7.179688 44.699219 7.476562 L 0.753906 43.710938 C 0.5625 43.867188 0.398438 44.058594 0.277344 44.273438 C 0.09375 44.589844 0 44.949219 0 45.320312 C 0 45.6875 0.09375 46.042969 0.277344 46.363281 C 0.335938 46.460938 0.398438 46.5625 0.472656 46.644531 L 4.902344 52.035156 C 5.058594 52.230469 5.257812 52.394531 5.472656 52.519531 C 5.789062 52.703125 6.148438 52.796875 6.507812 52.796875 C 6.875 52.796875 7.238281 52.703125 7.550781 52.519531 C 7.652344 52.460938 7.75 52.394531 7.839844 52.324219 L 48.675781 18.644531 C 48.761719 18.574219 48.84375 18.515625 48.945312 18.460938 C 49.265625 18.269531 49.625 18.171875 50 18.171875 C 50.375 18.171875 50.734375 18.269531 51.054688 18.460938 C 51.15625 18.515625 51.238281 18.574219 51.324219 18.644531 L 92.164062 52.324219 C 92.25 52.394531 92.347656 52.460938 92.449219 52.519531 C 92.769531 52.703125 93.125 52.796875 93.492188 52.796875 C 93.859375 52.796875 94.21875 52.703125 94.535156 52.519531 C 94.75 52.394531 94.941406 52.230469 95.097656 52.039062 L 99.527344 46.652344 C 99.601562 46.566406 99.664062 46.46875 99.71875 46.371094 C 99.902344 46.054688 100 45.695312 100 45.324219 C 100 44.964844 99.902344 44.601562 99.71875 44.289062 C 99.59375 44.0625 99.429688 43.875 99.230469 43.710938 Z M 84.71875 31.734375 "/>
</g>
</g>
</svg>
