<?xml version="1.0" encoding="UTF-8"?>
<svg xmlns="http://www.w3.org/2000/svg" xmlns:xlink="http://www.w3.org/1999/xlink" width="100px" height="px" viewBox="0 0 100 100" version="1.1">
<g id="surface1">
<path style=" stroke:none;fill-rule:evenodd;fill:rgb(100%,100%,100%);fill-opacity:1;" d="M 49.988281 1.65625 C 23.300781 1.65625 1.65625 23.308594 1.65625 49.988281 C 1.65625 76.6875 23.300781 98.320312 49.988281 98.320312 C 76.679688 98.320312 98.320312 76.6875 98.320312 49.988281 C 98.320312 23.308594 76.679688 1.65625 49.988281 1.65625 Z M 49.988281 23.09375 C 54.511719 23.09375 58.171875 26.761719 58.171875 31.277344 C 58.171875 35.800781 54.511719 39.460938 49.988281 39.460938 C 45.464844 39.460938 41.804688 35.800781 41.804688 31.277344 C 41.804688 26.761719 45.464844 23.09375 49.988281 23.09375 Z M 60.90625 72.597656 C 60.90625 73.886719 59.851562 74.933594 58.5625 74.933594 L 41.414062 74.933594 C 40.125 74.933594 39.070312 73.886719 39.070312 72.597656 L 39.070312 67.917969 C 39.070312 66.628906 40.125 65.578125 41.414062 65.578125 L 43.75 65.578125 L 43.75 53.105469 L 41.414062 53.105469 C 40.125 53.105469 39.070312 52.058594 39.070312 50.769531 L 39.070312 46.09375 C 39.070312 44.804688 40.125 43.75 41.414062 43.75 L 53.886719 43.75 C 55.175781 43.75 56.230469 44.804688 56.230469 46.09375 L 56.230469 65.578125 L 58.5625 65.578125 C 59.851562 65.578125 60.90625 66.628906 60.90625 67.917969 Z M 60.90625 72.597656 "/>
</g>
</svg>
