<?xml version="1.0" encoding="UTF-8"?>
<svg xmlns="http://www.w3.org/2000/svg" xmlns:xlink="http://www.w3.org/1999/xlink" width="100px" height="px" viewBox="0 0 100 89" version="1.1">
<defs>
<clipPath id="clip1">
  <path d="M 0 0 L 99.984375 0 L 99.984375 88.988281 L 0 88.988281 Z M 0 0 "/>
</clipPath>
</defs>
<g id="surface1">
<g clip-path="url(#clip1)" clip-rule="nonzero">
<path style=" stroke:none;fill-rule:evenodd;fill:rgb(100%,100%,100%);fill-opacity:1;" d="M 27.808594 77.796875 C 23.375 77.796875 18.941406 73.910156 16.722656 72.242188 C 5.632812 64.472656 2.304688 61.695312 0.0859375 60.027344 L 0.0859375 83.34375 C 0.0859375 86.410156 2.566406 88.894531 5.632812 88.894531 L 49.992188 88.894531 C 53.050781 88.894531 55.535156 86.410156 55.535156 83.34375 L 55.535156 60.027344 C 53.3125 61.695312 49.992188 64.472656 38.898438 72.242188 C 36.683594 73.910156 32.242188 77.796875 27.808594 77.796875 Z M 49.992188 44.492188 L 5.632812 44.492188 C 2.566406 44.492188 0.0859375 46.976562 0.0859375 50.042969 L 0.0859375 52.816406 C 4.519531 56.148438 3.96875 56.148438 20.046875 67.804688 C 21.710938 68.914062 25.039062 72.242188 27.808594 72.242188 C 30.578125 72.242188 33.90625 68.914062 35.570312 68.355469 C 51.648438 56.703125 51.097656 56.703125 55.535156 53.375 L 55.535156 50.042969 C 55.535156 46.976562 53.050781 44.492188 49.992188 44.492188 Z M 94.347656 27.835938 L 38.898438 27.835938 C 35.839844 27.835938 33.355469 30.324219 33.355469 33.390625 L 33.355469 38.9375 L 49.992188 38.9375 C 55.742188 38.9375 60.484375 43.351562 61.027344 48.96875 L 61.082031 48.929688 L 61.082031 72.242188 L 94.347656 72.242188 C 97.410156 72.242188 99.894531 69.757812 99.894531 66.691406 L 99.894531 33.390625 C 99.894531 30.324219 97.410156 27.835938 94.347656 27.835938 Z M 88.804688 50.042969 L 77.710938 50.042969 L 77.710938 38.9375 L 88.804688 38.9375 Z M 27.808594 33.390625 C 27.808594 27.265625 32.785156 22.292969 38.898438 22.292969 L 77.710938 22.292969 L 77.710938 5.636719 C 77.710938 2.570312 75.226562 0.0859375 72.167969 0.0859375 L 16.722656 0.0859375 C 13.664062 0.0859375 11.171875 2.570312 11.171875 5.636719 L 11.171875 38.9375 L 27.808594 38.9375 Z M 27.808594 33.390625 "/>
</g>
</g>
</svg>
