<?xml version="1.0" encoding="UTF-8"?>
<svg xmlns="http://www.w3.org/2000/svg" xmlns:xlink="http://www.w3.org/1999/xlink" width="100px" height="px" viewBox="0 0 100 100" version="1.1">
<g id="surface1">
<path style=" stroke:none;fill-rule:evenodd;fill:rgb(100%,100%,100%);fill-opacity:1;" d="M 39.851562 32.433594 C 36.773438 34.21875 34.21875 36.773438 32.433594 39.851562 C 30.660156 42.941406 29.722656 46.429688 29.722656 49.988281 C 29.722656 53.546875 30.660156 57.039062 32.433594 60.125 C 34.21875 63.203125 36.773438 65.761719 39.851562 67.542969 C 42.941406 69.320312 46.429688 70.253906 49.988281 70.253906 C 53.546875 70.253906 57.039062 69.320312 60.125 67.542969 C 63.203125 65.761719 65.761719 63.203125 67.542969 60.125 C 69.320312 57.039062 70.253906 53.546875 70.253906 49.988281 C 70.253906 46.429688 69.320312 42.941406 67.542969 39.851562 C 65.761719 36.773438 63.203125 34.21875 60.125 32.433594 C 57.039062 30.660156 53.546875 29.722656 49.988281 29.722656 C 46.429688 29.722656 42.941406 30.660156 39.851562 32.433594 Z M 49.988281 54.667969 C 49.171875 54.667969 48.363281 54.453125 47.652344 54.039062 C 46.941406 53.628906 46.351562 53.039062 45.9375 52.324219 C 45.523438 51.617188 45.3125 50.808594 45.3125 49.988281 C 45.3125 49.171875 45.523438 48.363281 45.9375 47.652344 C 46.351562 46.941406 46.941406 46.351562 47.652344 45.9375 C 48.363281 45.523438 49.171875 45.3125 49.988281 45.3125 C 50.808594 45.3125 51.617188 45.523438 52.324219 45.9375 C 53.039062 46.351562 53.628906 46.941406 54.039062 47.652344 C 54.453125 48.363281 54.667969 49.171875 54.667969 49.988281 C 54.667969 50.808594 54.453125 51.617188 54.039062 52.324219 C 53.628906 53.039062 53.039062 53.628906 52.324219 54.039062 C 51.617188 54.453125 50.808594 54.667969 49.988281 54.667969 Z M 49.988281 1.65625 C 23.292969 1.65625 1.65625 23.292969 1.65625 49.988281 C 1.65625 76.6875 23.292969 98.320312 49.988281 98.320312 C 76.6875 98.320312 98.320312 76.6875 98.320312 49.988281 C 98.320312 23.292969 76.6875 1.65625 49.988281 1.65625 Z M 49.988281 74.933594 C 45.613281 74.933594 41.3125 73.785156 37.519531 71.59375 C 33.722656 69.398438 30.578125 66.253906 28.382812 62.460938 C 26.195312 58.667969 25.046875 54.363281 25.046875 49.988281 C 25.046875 45.613281 26.195312 41.3125 28.382812 37.519531 C 30.578125 33.722656 33.722656 30.578125 37.519531 28.382812 C 41.3125 26.195312 45.613281 25.046875 49.988281 25.046875 C 54.363281 25.046875 58.667969 26.195312 62.460938 28.382812 C 66.253906 30.578125 69.398438 33.722656 71.59375 37.519531 C 73.785156 41.3125 74.933594 45.613281 74.933594 49.988281 C 74.933594 54.363281 73.785156 58.667969 71.59375 62.460938 C 69.398438 66.253906 66.253906 69.398438 62.460938 71.59375 C 58.667969 73.785156 54.363281 74.933594 49.988281 74.933594 Z M 49.988281 74.933594 "/>
</g>
</svg>
