<?xml version="1.0" encoding="UTF-8"?>
<svg xmlns="http://www.w3.org/2000/svg" xmlns:xlink="http://www.w3.org/1999/xlink" width="100px" height="px" viewBox="0 0 100 80" version="1.1">
<defs>
<clipPath id="clip1">
  <path d="M 0 0 L 99.992188 0 L 99.992188 79.996094 L 0 79.996094 Z M 0 0 "/>
</clipPath>
</defs>
<g id="surface1">
<g clip-path="url(#clip1)" clip-rule="nonzero">
<path style=" stroke:none;fill-rule:evenodd;fill:rgb(100%,100%,100%);fill-opacity:1;" d="M 23.332031 49.878906 C 25.109375 47.894531 27.832031 46.175781 31.128906 45.046875 L 32.320312 38.304688 C 26.710938 39.933594 22.953125 44.738281 23.332031 49.878906 Z M 10.011719 18.046875 C 9.96875 17.792969 10.058594 17.632812 10.050781 17.628906 C 19.074219 12.621094 29.285156 9.972656 39.578125 9.972656 C 39.832031 9.972656 40.085938 9.996094 40.335938 10.003906 C 42.519531 7.894531 45.296875 6.4375 48.394531 5.941406 C 51.347656 5.46875 54.34375 5.230469 57.332031 5.109375 C 55.773438 2.929688 53.503906 1.324219 50.804688 0.890625 C 47.066406 0.296875 43.316406 0 39.578125 0 C 27.601562 0 15.785156 3.035156 5.183594 8.917969 C 1.410156 11.015625 -0.613281 15.382812 0.164062 19.777344 L 5.121094 47.824219 C 7.347656 60.40625 26.421875 70.023438 37.0625 70.023438 C 37.625 70.023438 38.121094 69.949219 38.628906 69.898438 C 36.515625 67.226562 34.105469 63.574219 32.457031 59.339844 C 25.015625 57.3125 15.886719 51.273438 14.96875 46.09375 Z M 29.574219 22.832031 C 28.289062 24.222656 26.34375 25.292969 24.054688 25.695312 C 21.769531 26.097656 19.578125 25.761719 17.886719 24.886719 C 17.804688 25.507812 17.789062 26.132812 17.898438 26.777344 C 18.503906 30.171875 21.742188 32.433594 25.140625 31.835938 C 28.542969 31.238281 30.808594 28.003906 30.210938 24.613281 C 30.09375 23.96875 29.863281 23.386719 29.574219 22.832031 Z M 49.1875 10.867188 C 44.917969 11.546875 41.515625 14.96875 40.742188 19.359375 L 35.789062 47.410156 C 33.382812 61.011719 50.675781 78.070312 60.519531 79.800781 C 70.371094 81.539062 92.46875 71.398438 94.871094 57.796875 L 99.828125 29.753906 C 100.605469 25.359375 98.582031 20.980469 94.808594 18.890625 C 80.90625 11.171875 64.894531 8.355469 49.1875 10.867188 Z M 52.117188 34.015625 C 52.710938 30.625 55.953125 28.359375 59.355469 28.960938 C 62.753906 29.558594 65.027344 32.789062 64.421875 36.175781 C 64.3125 36.820312 64.074219 37.410156 63.792969 37.960938 C 62.496094 36.566406 60.5625 35.496094 58.269531 35.097656 C 55.984375 34.695312 53.792969 35.039062 52.105469 35.90625 C 52.023438 35.292969 51.996094 34.660156 52.117188 34.015625 Z M 49.210938 47.425781 C 52.429688 51.417969 57.996094 54.644531 64.761719 55.832031 C 71.523438 57.019531 77.851562 55.890625 82.246094 53.238281 C 80.03125 61.351562 71.824219 66.597656 63.125 65.066406 C 54.425781 63.539062 48.515625 55.808594 49.210938 47.425781 Z M 83.480469 41.421875 C 82.191406 40.035156 80.25 38.964844 77.964844 38.5625 C 75.671875 38.15625 73.480469 38.496094 71.792969 39.367188 C 71.710938 38.753906 71.691406 38.121094 71.8125 37.476562 C 72.40625 34.085938 75.648438 31.824219 79.050781 32.421875 C 82.445312 33.019531 84.714844 36.253906 84.117188 39.644531 C 84.007812 40.289062 83.769531 40.871094 83.480469 41.421875 Z M 83.480469 41.421875 "/>
</g>
</g>
</svg>
