<?xml version="1.0" encoding="UTF-8"?>
<!DOCTYPE svg PUBLIC "-//W3C//DTD SVG 1.1//EN" "http://www.w3.org/Graphics/SVG/1.1/DTD/svg11.dtd">
<svg version="1.2" width="152.4mm" height="135.47mm" viewBox="0 0 15240 13547" preserveAspectRatio="xMidYMid" fill-rule="evenodd" stroke-width="28.222" stroke-linejoin="round" xmlns="http://www.w3.org/2000/svg" xmlns:ooo="http://xml.openoffice.org/svg/export" xmlns:xlink="http://www.w3.org/1999/xlink" xmlns:presentation="http://sun.com/xmlns/staroffice/presentation" xmlns:smil="http://www.w3.org/2001/SMIL20/" xmlns:anim="urn:oasis:names:tc:opendocument:xmlns:animation:1.0" xml:space="preserve">
 <defs class="ClipPathGroup">
  <clipPath id="presentation_clip_path" clipPathUnits="userSpaceOnUse">
   <rect x="0" y="0" width="15240" height="13547"/>
  </clipPath>
  <clipPath id="presentation_clip_path_shrink" clipPathUnits="userSpaceOnUse">
   <rect x="15" y="13" width="15210" height="13520"/>
  </clipPath>
 </defs>
 <defs class="TextShapeIndex">
  <g ooo:slide="id1" ooo:id-list="id3"/>
 </defs>
 <defs class="EmbeddedBulletChars">
  <g id="bullet-char-template-57356" transform="scale(0.00048828125,-0.00048828125)">
   <path d="M 580,1141 L 1163,571 580,0 -4,571 580,1141 Z"/>
  </g>
  <g id="bullet-char-template-57354" transform="scale(0.00048828125,-0.00048828125)">
   <path d="M 8,1128 L 1137,1128 1137,0 8,0 8,1128 Z"/>
  </g>
  <g id="bullet-char-template-10146" transform="scale(0.00048828125,-0.00048828125)">
   <path d="M 174,0 L 602,739 174,1481 1456,739 174,0 Z M 1358,739 L 309,1346 659,739 1358,739 Z"/>
  </g>
  <g id="bullet-char-template-10132" transform="scale(0.00048828125,-0.00048828125)">
   <path d="M 2015,739 L 1276,0 717,0 1260,543 174,543 174,936 1260,936 717,1481 1274,1481 2015,739 Z"/>
  </g>
  <g id="bullet-char-template-10007" transform="scale(0.00048828125,-0.00048828125)">
   <path d="M 0,-2 C -7,14 -16,27 -25,37 L 356,567 C 262,823 215,952 215,954 215,979 228,992 255,992 264,992 276,990 289,987 310,991 331,999 354,1012 L 381,999 492,748 772,1049 836,1024 860,1049 C 881,1039 901,1025 922,1006 886,937 835,863 770,784 769,783 710,716 594,584 L 774,223 C 774,196 753,168 711,139 L 727,119 C 717,90 699,76 672,76 641,76 570,178 457,381 L 164,-76 C 142,-110 111,-127 72,-127 30,-127 9,-110 8,-76 1,-67 -2,-52 -2,-32 -2,-23 -1,-13 0,-2 Z"/>
  </g>
  <g id="bullet-char-template-10004" transform="scale(0.00048828125,-0.00048828125)">
   <path d="M 285,-33 C 182,-33 111,30 74,156 52,228 41,333 41,471 41,549 55,616 82,672 116,743 169,778 240,778 293,778 328,747 346,684 L 369,508 C 377,444 397,411 428,410 L 1163,1116 C 1174,1127 1196,1133 1229,1133 1271,1133 1292,1118 1292,1087 L 1292,965 C 1292,929 1282,901 1262,881 L 442,47 C 390,-6 338,-33 285,-33 Z"/>
  </g>
  <g id="bullet-char-template-9679" transform="scale(0.00048828125,-0.00048828125)">
   <path d="M 813,0 C 632,0 489,54 383,161 276,268 223,411 223,592 223,773 276,916 383,1023 489,1130 632,1184 813,1184 992,1184 1136,1130 1245,1023 1353,916 1407,772 1407,592 1407,412 1353,268 1245,161 1136,54 992,0 813,0 Z"/>
  </g>
  <g id="bullet-char-template-8226" transform="scale(0.00048828125,-0.00048828125)">
   <path d="M 346,457 C 273,457 209,483 155,535 101,586 74,649 74,723 74,796 101,859 155,911 209,963 273,989 346,989 419,989 480,963 531,910 582,859 608,796 608,723 608,648 583,586 532,535 482,483 420,457 346,457 Z"/>
  </g>
  <g id="bullet-char-template-8211" transform="scale(0.00048828125,-0.00048828125)">
   <path d="M -4,459 L 1135,459 1135,606 -4,606 -4,459 Z"/>
  </g>
  <g id="bullet-char-template-61548" transform="scale(0.00048828125,-0.00048828125)">
   <path d="M 173,740 C 173,903 231,1043 346,1159 462,1274 601,1332 765,1332 928,1332 1067,1274 1183,1159 1299,1043 1357,903 1357,740 1357,577 1299,437 1183,322 1067,206 928,148 765,148 601,148 462,206 346,322 231,437 173,577 173,740 Z"/>
  </g>
 </defs>
 <g>
  <g id="id2" class="Master_Slide">
   <g id="bg-id2" class="Background"/>
   <g id="bo-id2" class="BackgroundObjects"/>
  </g>
 </g>
 <g class="SlideGroup">
  <g>
   <g id="container-id1">
    <g id="id1" class="Slide" clip-path="url(#presentation_clip_path)">
     <g class="Page">
      <g class="Graphic">
       <g id="id3">
        <rect class="BoundingBox" stroke="none" fill="none" x="0" y="0" width="15240" height="13547"/>
        <defs>
         <clipPath id="clip_path_1" clipPathUnits="userSpaceOnUse">
          <path d="M 0,0 L 15239,0 15239,13546 0,13546 0,0 Z"/>
         </clipPath>
        </defs>
        <g clip-path="url(#clip_path_1)">
         <path fill="rgb(255,255,255)" stroke="none" d="M 2540,7940 L 2540,12276 C 2540,12350 2559,12423 2597,12488 2634,12552 2687,12606 2751,12643 2816,12680 2889,12699 2963,12699 L 5928,12692 C 6001,12691 6074,12672 6137,12635 6202,12598 6255,12544 6292,12480 6329,12416 6349,12343 6349,12268 L 6349,12268 6349,9736 C 6349,9662 6369,9589 6406,9525 6443,9460 6496,9407 6561,9370 6625,9332 6698,9313 6772,9313 L 8466,9313 C 8540,9313 8613,9332 8677,9370 8742,9407 8795,9460 8832,9525 8869,9589 8889,9662 8889,9736 L 8889,12267 C 8889,12267 8889,12267 8889,12268 8889,12342 8908,12415 8946,12480 8983,12544 9036,12597 9101,12634 9165,12672 9238,12691 9312,12691 L 9312,12691 12276,12699 C 12350,12699 12423,12680 12488,12643 12552,12606 12605,12552 12642,12488 12680,12423 12699,12350 12699,12276 L 12699,7937 7822,3923 C 7809,3912 7796,3903 7781,3894 7732,3866 7677,3851 7620,3851 7563,3851 7508,3866 7459,3894 7444,3903 7431,3912 7418,3923 L 2540,7940 Z M 12911,4830 L 12911,1165 C 12911,1110 12896,1055 12868,1007 12840,958 12800,918 12752,890 12704,863 12649,848 12593,848 L 11112,848 C 11056,848 11001,863 10953,890 10905,918 10865,958 10837,1007 10809,1055 10794,1110 10794,1165 L 10794,3086 8426,1138 C 8372,1093 8314,1053 8254,1018 8061,907 7842,848 7619,848 7396,848 7177,907 6984,1018 6923,1053 6866,1093 6812,1138 L 115,6653 C 86,6677 61,6706 42,6739 14,6787 0,6842 0,6898 0,6954 14,7008 42,7057 51,7072 61,7087 72,7100 L 747,7920 C 771,7950 801,7975 834,7994 882,8022 937,8036 992,8036 1048,8036 1103,8022 1151,7994 1166,7985 1181,7975 1195,7964 L 7418,2838 C 7431,2827 7444,2818 7459,2810 7508,2781 7563,2766 7620,2766 7677,2766 7732,2781 7781,2810 7796,2818 7809,2827 7822,2838 L 14046,7964 C 14059,7975 14074,7985 14089,7994 14138,8022 14192,8036 14248,8036 14304,8036 14359,8022 14407,7994 14440,7975 14469,7950 14493,7921 L 15168,7101 C 15179,7088 15189,7073 15197,7058 15225,7010 15240,6955 15240,6899 15240,6844 15225,6789 15197,6741 15178,6707 15153,6678 15123,6653 L 12911,4830 Z"/>
        </g>
       </g>
      </g>
     </g>
    </g>
   </g>
  </g>
 </g>
</svg>